<svg width="26" height="26" viewBox="0 0 240 240" xmlns="http://www.w3.org/2000/svg">
  <defs>
    <linearGradient id="waGradient" x1="0" y1="0" x2="1" y2="1">
      <stop offset="0%" stop-color="#25D366"/>
      <stop offset="100%" stop-color="#128C7E"/>
    </linearGradient>
  </defs>
  <circle cx="120" cy="120" r="120" fill="url(#waGradient)"/>
  <path
    d="M120 60C90.4 60 66.4 83.9 66.4 113.4C66.4 124.7 69.7 135.3 75.6 144.6L68 171.5L95.8 164C104.7 169 114.9 172 125.6 172C155.2 172 179.2 148.1 179.2 118.6C179.2 89.1 155.2 60 125.6 60H120ZM125.6 72.8C148.1 72.8 166.4 91.2 166.4 113.7C166.4 136.2 148.1 154.6 125.6 154.6C116.6 154.6 108.3 151.9 101.4 147.4L100 146.5L84.8 150.6L89.1 135.8L88.1 134.3C82.9 127 80 120.1 80 113.4C80 91 97.9 72.8 120.4 72.8H125.6ZM143.5 122.4C142.5 121.9 135.9 118.7 134.9 118.3C133.9 117.9 133.1 117.7 132.3 118.9C131.5 120.1 129.2 122.8 128.6 123.6C128 124.4 127.4 124.5 126.4 124C125.4 123.5 121.7 122.3 116.9 118.3C113.4 115.4 111 111.7 110.4 110.7C109.8 109.7 110.3 109.1 110.8 108.6C111.3 108.1 112 107.1 112.5 106.4C113 105.7 113.2 105.1 113.6 104.3C114 103.5 113.8 102.8 113.5 102.3C113.2 101.8 110.2 94.5 108.9 91.7C107.7 88.9 106.4 89.4 105.5 89.4C104.6 89.4 103.6 89.3 102.6 89.3C101.6 89.3 100.2 89.6 99.2 90.6C98.2 91.6 95.8 93.8 95.8 98.6C95.8 103.4 99.3 108.4 99.8 109.2C100.3 110 107.1 121.8 117.6 128.1C128.1 134.4 131.9 135.1 135.9 134.4C139.9 133.7 144.5 130.9 145.9 127.9C147.3 124.9 147.3 122.3 146.9 121.7C146.5 121.1 144.5 122.9 143.5 122.4Z"
    fill="#FFFFFF"
  />
</svg>