<?xml version="1.0" standalone="no"?>
<!DOCTYPE svg PUBLIC "-//W3C//DTD SVG 20010904//EN"
 "http://www.w3.org/TR/2001/REC-SVG-20010904/DTD/svg10.dtd">
<svg version="1.0" xmlns="http://www.w3.org/2000/svg"
 width="32.000000pt" height="32.000000pt" viewBox="0 0 32.000000 32.000000"
 preserveAspectRatio="xMidYMid meet">
<metadata>
Created by DenyTeeam
</metadata>
<g transform="translate(0.000000,32.000000) scale(0.100000,-0.100000)"
fill="#fff" stroke="none">
<path d="M62 283 c-40 -8 -55 -44 -51 -131 3 -60 8 -83 23 -97 24 -24 79 -25
105 -1 19 17 22 18 45 2 55 -35 86 -12 86 66 0 37 6 60 20 78 26 33 25 45 -7
70 -23 18 -36 21 -73 16 -72 -10 -84 -10 -105 -4 -11 3 -30 3 -43 1z m78 -55
c11 -18 20 -49 20 -68 0 -19 -9 -50 -20 -67 -17 -28 -25 -33 -60 -33 l-40 0 0
100 0 100 40 0 c35 0 43 -5 60 -32z m140 7 c0 -19 -5 -25 -21 -25 -21 0 -22
-3 -16 -75 5 -74 5 -75 -19 -75 -23 0 -24 2 -24 75 0 68 -2 75 -20 75 -15 0
-20 7 -20 25 0 24 3 25 60 25 57 0 60 -1 60 -25z"/>
<path d="M80 160 c0 -29 4 -40 15 -40 20 0 29 23 21 55 -11 42 -36 31 -36 -15z"/>
</g>
</svg>
